<svg xmlns="http://www.w3.org/2000/svg" width="1000" height="316" viewBox="0 0 1000 316" role="img">
<rect x="1.5" y="1.5" width="997" height="313" rx="16" fill="#0D1117" stroke="#30363D" stroke-width="1.5"/><defs><marker id="arr" viewBox="0 0 10 10" refX="8" refY="5" markerWidth="7" markerHeight="7" orient="auto-start-reverse">
<path d="M 0 0 L 10 5 L 0 10 z" fill="#475569"/></marker></defs><g transform="translate(120,118)"><rect x="-46" y="-30" width="66" height="42" rx="5" fill="#161B22" stroke="#475569" stroke-width="1.6"/><rect x="-41" y="-25" width="56" height="32" rx="3" fill="#1E293B"/><rect x="-56" y="12" width="86" height="6" rx="3" fill="#475569"/><rect x="34" y="-34" width="26" height="46" rx="6" fill="#161B22" stroke="#475569" stroke-width="1.6"/><rect x="38.5" y="-28" width="17" height="30" rx="2.5" fill="#1E293B"/><circle cx="47" cy="6.5" r="1.8" fill="#475569"/><rect x="-30" y="-12" width="14" height="3.4" rx="1.7" fill="#00B4D8" opacity="0.75"><animate attributeName="opacity" values="0.15;0.8;0.15" dur="3.0s" repeatCount="indefinite"/></rect><rect x="-8" y="-16" width="14" height="3.4" rx="1.7" fill="#00B4D8" opacity="0.75"><animate attributeName="opacity" values="0.15;0.8;0.15" dur="2.4s" repeatCount="indefinite"/></rect><rect x="14" y="-8" width="14" height="3.4" rx="1.7" fill="#00B4D8" opacity="0.75"><animate attributeName="opacity" values="0.15;0.8;0.15" dur="2.6s" repeatCount="indefinite"/></rect><rect x="42" y="-24" width="10" height="3" rx="1.5" fill="#00C896"><animate attributeName="opacity" values="0.8;0.15;0.8" dur="2.6s" repeatCount="indefinite"/></rect></g><text x="120" y="170" text-anchor="middle" font-family="-apple-system,'Segoe UI',Roboto,Helvetica,Arial,sans-serif" font-size="14.5" font-weight="600" fill="#F8FAFC">Your vaults</text><text x="120" y="188" text-anchor="middle" font-family="-apple-system,'Segoe UI',Roboto,Helvetica,Arial,sans-serif" font-size="11.5" fill="#94A3B8">laptop &#183; phone &#183; anything</text><g transform="translate(880,118)"><rect x="-46" y="-30" width="66" height="42" rx="5" fill="#161B22" stroke="#475569" stroke-width="1.6"/><rect x="-41" y="-25" width="56" height="32" rx="3" fill="#1E293B"/><rect x="-56" y="12" width="86" height="6" rx="3" fill="#475569"/><rect x="34" y="-34" width="26" height="46" rx="6" fill="#161B22" stroke="#475569" stroke-width="1.6"/><rect x="38.5" y="-28" width="17" height="30" rx="2.5" fill="#1E293B"/><circle cx="47" cy="6.5" r="1.8" fill="#475569"/><rect x="-30" y="-12" width="14" height="3.4" rx="1.7" fill="#00B4D8" opacity="0.75"><animate attributeName="opacity" values="0.15;0.8;0.15" dur="3.0s" repeatCount="indefinite"/></rect><rect x="-8" y="-16" width="14" height="3.4" rx="1.7" fill="#00B4D8" opacity="0.75"><animate attributeName="opacity" values="0.15;0.8;0.15" dur="2.4s" repeatCount="indefinite"/></rect><rect x="14" y="-8" width="14" height="3.4" rx="1.7" fill="#00B4D8" opacity="0.75"><animate attributeName="opacity" values="0.15;0.8;0.15" dur="2.6s" repeatCount="indefinite"/></rect><rect x="42" y="-24" width="10" height="3" rx="1.5" fill="#00C896"><animate attributeName="opacity" values="0.8;0.15;0.8" dur="2.6s" repeatCount="indefinite"/></rect></g><text x="880" y="170" text-anchor="middle" font-family="-apple-system,'Segoe UI',Roboto,Helvetica,Arial,sans-serif" font-size="14.5" font-weight="600" fill="#F8FAFC">Every device</text><text x="880" y="188" text-anchor="middle" font-family="-apple-system,'Segoe UI',Roboto,Helvetica,Arial,sans-serif" font-size="11.5" fill="#94A3B8">always consistent</text><rect x="414" y="50" width="172" height="116" rx="12" fill="#161B22" stroke="#30363D"/><g stroke="#00B4D8" stroke-width="2.2" fill="none"><path d="M 454,126 C 454,90 490,90 490,74"/><path d="M 546,126 C 546,90 510,90 510,74"/><path d="M 490,74 L 510,74"/></g><circle cx="454" cy="126" r="5.5" fill="#1E293B" stroke="#00C896" stroke-width="2.2"><animate attributeName="stroke-opacity" values="1;0.45;1" dur="2.8s" begin="0.0s" repeatCount="indefinite"/></circle><circle cx="546" cy="126" r="5.5" fill="#1E293B" stroke="#00C896" stroke-width="2.2"><animate attributeName="stroke-opacity" values="1;0.45;1" dur="2.8s" begin="2.3s" repeatCount="indefinite"/></circle><circle cx="490" cy="74" r="5.5" fill="#1E293B" stroke="#00B4D8" stroke-width="2.2"><animate attributeName="stroke-opacity" values="1;0.45;1" dur="2.8s" begin="0.9s" repeatCount="indefinite"/></circle><circle cx="510" cy="74" r="5.5" fill="#1E293B" stroke="#00B4D8" stroke-width="2.2"><animate attributeName="stroke-opacity" values="1;0.45;1" dur="2.8s" begin="1.4s" repeatCount="indefinite"/></circle><text x="500" y="152" text-anchor="middle" font-family="-apple-system,'Segoe UI',Roboto,Helvetica,Arial,sans-serif" font-size="14.5" font-weight="600" fill="#F8FAFC">Git remote</text><text x="500" y="192" text-anchor="middle" font-family="-apple-system,'Segoe UI',Roboto,Helvetica,Arial,sans-serif" font-size="11.5" fill="#94A3B8">GitHub &#183; GitLab &#183; self-hosted</text><path d="M 188,118 C 258,118 334,112 404,112" fill="none" stroke="#475569" stroke-width="1.8" marker-end="url(#arr)"/><path d="M 188,118 C 258,118 334,112 404,112" fill="none" stroke="#00B4D8" stroke-width="1.8" stroke-dasharray="3 11"><animate attributeName="stroke-dashoffset" values="0;-28" dur="1.1s" repeatCount="indefinite"/></path><circle r="3.4" fill="#00C896" fill-opacity="0.95"><animateMotion dur="3.2s" repeatCount="indefinite" path="M 188,118 C 258,118 334,112 404,112"/></circle><circle r="2.6" fill="#00B4D8" fill-opacity="0.9"><animateMotion dur="3.2s" begin="1.6s" repeatCount="indefinite" path="M 188,118 C 258,118 334,112 404,112"/></circle><path d="M 596,112 C 666,112 742,118 812,118" fill="none" stroke="#475569" stroke-width="1.8" marker-end="url(#arr)"/><path d="M 596,112 C 666,112 742,118 812,118" fill="none" stroke="#00B4D8" stroke-width="1.8" stroke-dasharray="3 11"><animate attributeName="stroke-dashoffset" values="0;-28" dur="1.1s" repeatCount="indefinite"/></path><circle r="3.4" fill="#00C896" fill-opacity="0.95"><animateMotion dur="3.2s" repeatCount="indefinite" path="M 596,112 C 666,112 742,118 812,118"/></circle><circle r="2.6" fill="#00B4D8" fill-opacity="0.9"><animateMotion dur="3.2s" begin="1.6s" repeatCount="indefinite" path="M 596,112 C 666,112 742,118 812,118"/></circle><rect x="57" y="236" width="118" height="40" rx="10" fill="#1E293B" stroke="#475569" stroke-width="1.4"/><text x="116" y="261" text-anchor="middle" font-family="-apple-system,'Segoe UI',Roboto,Helvetica,Arial,sans-serif" font-size="13.5" fill="#CBD5E1">&#128274; Lock</text><g opacity="0"><animate attributeName="opacity" dur="9.0s" repeatCount="indefinite" keyTimes="0 0.1 0.125 0.235 0.26 1" values="0;0;1;1;0;0"/><rect x="57" y="236" width="118" height="40" rx="10" fill="#1E293B" stroke="#00B4D8" stroke-width="1.8"/><text x="116" y="261" text-anchor="middle" font-family="-apple-system,'Segoe UI',Roboto,Helvetica,Arial,sans-serif" font-size="13.5" font-weight="600" fill="#F8FAFC">&#128274; Lock</text></g><rect x="185" y="236" width="118" height="40" rx="10" fill="#1E293B" stroke="#475569" stroke-width="1.4"/><text x="244" y="261" text-anchor="middle" font-family="-apple-system,'Segoe UI',Roboto,Helvetica,Arial,sans-serif" font-size="13.5" fill="#CBD5E1">&#128230; Backup</text><g opacity="0"><animate attributeName="opacity" dur="9.0s" repeatCount="indefinite" keyTimes="0 0.215 0.24 0.35 0.375 1" values="0;0;1;1;0;0"/><rect x="185" y="236" width="118" height="40" rx="10" fill="#1E293B" stroke="#00B4D8" stroke-width="1.8"/><text x="244" y="261" text-anchor="middle" font-family="-apple-system,'Segoe UI',Roboto,Helvetica,Arial,sans-serif" font-size="13.5" font-weight="600" fill="#F8FAFC">&#128230; Backup</text></g><rect x="313" y="236" width="118" height="40" rx="10" fill="#1E293B" stroke="#475569" stroke-width="1.4"/><text x="372" y="261" text-anchor="middle" font-family="-apple-system,'Segoe UI',Roboto,Helvetica,Arial,sans-serif" font-size="13.5" fill="#CBD5E1">&#128190; Commit</text><g opacity="0"><animate attributeName="opacity" dur="9.0s" repeatCount="indefinite" keyTimes="0 0.33 0.355 0.465 0.49 1" values="0;0;1;1;0;0"/><rect x="313" y="236" width="118" height="40" rx="10" fill="#1E293B" stroke="#00B4D8" stroke-width="1.8"/><text x="372" y="261" text-anchor="middle" font-family="-apple-system,'Segoe UI',Roboto,Helvetica,Arial,sans-serif" font-size="13.5" font-weight="600" fill="#F8FAFC">&#128190; Commit</text></g><rect x="441" y="236" width="118" height="40" rx="10" fill="#1E293B" stroke="#475569" stroke-width="1.4"/><text x="500" y="261" text-anchor="middle" font-family="-apple-system,'Segoe UI',Roboto,Helvetica,Arial,sans-serif" font-size="13.5" fill="#CBD5E1">&#127760; Fetch</text><g opacity="0"><animate attributeName="opacity" dur="9.0s" repeatCount="indefinite" keyTimes="0 0.445 0.47 0.58 0.605 1" values="0;0;1;1;0;0"/><rect x="441" y="236" width="118" height="40" rx="10" fill="#1E293B" stroke="#00B4D8" stroke-width="1.8"/><text x="500" y="261" text-anchor="middle" font-family="-apple-system,'Segoe UI',Roboto,Helvetica,Arial,sans-serif" font-size="13.5" font-weight="600" fill="#F8FAFC">&#127760; Fetch</text></g><rect x="569" y="236" width="118" height="40" rx="10" fill="#1E293B" stroke="#475569" stroke-width="1.4"/><text x="628" y="261" text-anchor="middle" font-family="-apple-system,'Segoe UI',Roboto,Helvetica,Arial,sans-serif" font-size="13.5" fill="#CBD5E1">&#128260; Rebase</text><g opacity="0"><animate attributeName="opacity" dur="9.0s" repeatCount="indefinite" keyTimes="0 0.56 0.585 0.695 0.72 1" values="0;0;1;1;0;0"/><rect x="569" y="236" width="118" height="40" rx="10" fill="#1E293B" stroke="#00B4D8" stroke-width="1.8"/><text x="628" y="261" text-anchor="middle" font-family="-apple-system,'Segoe UI',Roboto,Helvetica,Arial,sans-serif" font-size="13.5" font-weight="600" fill="#F8FAFC">&#128260; Rebase</text></g><rect x="697" y="236" width="118" height="40" rx="10" fill="#1E293B" stroke="#475569" stroke-width="1.4"/><text x="756" y="261" text-anchor="middle" font-family="-apple-system,'Segoe UI',Roboto,Helvetica,Arial,sans-serif" font-size="13.5" fill="#CBD5E1">&#128640; Push</text><g opacity="0"><animate attributeName="opacity" dur="9.0s" repeatCount="indefinite" keyTimes="0 0.675 0.7 0.81 0.835 1" values="0;0;1;1;0;0"/><rect x="697" y="236" width="118" height="40" rx="10" fill="#1E293B" stroke="#00B4D8" stroke-width="1.8"/><text x="756" y="261" text-anchor="middle" font-family="-apple-system,'Segoe UI',Roboto,Helvetica,Arial,sans-serif" font-size="13.5" font-weight="600" fill="#F8FAFC">&#128640; Push</text></g><rect x="825" y="236" width="118" height="40" rx="10" fill="#1E293B" stroke="#475569" stroke-width="1.4"/><text x="884" y="261" text-anchor="middle" font-family="-apple-system,'Segoe UI',Roboto,Helvetica,Arial,sans-serif" font-size="13.5" fill="#CBD5E1">&#9989; Synced</text><g opacity="0"><animate attributeName="opacity" dur="9.0s" repeatCount="indefinite" keyTimes="0 0.79 0.815 0.925 0.95 1" values="0;0;1;1;0;0"/><rect x="825" y="236" width="118" height="40" rx="10" fill="#1E293B" stroke="#00C896" stroke-width="1.8"/><text x="884" y="261" text-anchor="middle" font-family="-apple-system,'Segoe UI',Roboto,Helvetica,Arial,sans-serif" font-size="13.5" font-weight="600" fill="#00C896">&#9989; Synced</text></g><rect x="57" y="288" width="886" height="3.5" rx="1.75" fill="#1E293B"/><rect x="57" y="288" width="0" height="3.5" rx="1.75" fill="#00C896"><animate attributeName="width" dur="9.0s" repeatCount="indefinite" keyTimes="0 0.88 0.9 1" values="0;886;0;0"/></rect>
</svg>
